<svg xmlns="http://www.w3.org/2000/svg" width="64" height="64" viewBox="0 0 64 64"><defs>
<linearGradient id="metal" x1="0" y1="0" x2="0.8" y2="1"><stop stop-color="#EEF5FC"/><stop offset=".45" stop-color="#9BB6CD"/><stop offset="1" stop-color="#486A88"/></linearGradient>
<linearGradient id="blue" x1="0" y1="0" x2="1" y2="1"><stop stop-color="#7CE4FF"/><stop offset=".5" stop-color="#189CFF"/><stop offset="1" stop-color="#255DD7"/></linearGradient>
<linearGradient id="mint" x1="0" y1="0" x2="1" y2="1"><stop stop-color="#B0FFCD"/><stop offset=".5" stop-color="#38E9A1"/><stop offset="1" stop-color="#009B80"/></linearGradient>
<linearGradient id="gold" x1="0" y1="0" x2="1" y2="1"><stop stop-color="#FFF1AC"/><stop offset=".5" stop-color="#FFC34C"/><stop offset="1" stop-color="#D47D20"/></linearGradient>
<linearGradient id="purple" x1="0" y1="0" x2="1" y2="1"><stop stop-color="#EDCEFF"/><stop offset=".55" stop-color="#AB80F0"/><stop offset="1" stop-color="#6454C4"/></linearGradient>
<linearGradient id="glass" x1="0" y1="0" x2="0.7" y2="1"><stop stop-color="#284F6A"/><stop offset="1" stop-color="#102137"/></linearGradient>
</defs><ellipse cx="32" cy="58" rx="23" ry="4" fill="#020A13" opacity=".55"/><g stroke-width="1.5" stroke-linejoin="round" stroke-linecap="round"><path d="M15 33V12M49 33V12" stroke="url(#metal)" stroke-width="5"/>
<path d="M22 16Q32 7 42 16M26 21Q32 15 38 21" fill="none" stroke="#57CAFF" stroke-width="3"/>
<circle cx="32" cy="26" r="2.5" fill="#80E4FF"/>
<path d="M9 31H55L60 40V51H4V40Z" fill="url(#metal)" stroke="#BED4E6"/>
<path d="M9 31H55L60 40H4Z" fill="#587E9F"/><rect x="8" y="41" width="48" height="6" rx="2" fill="#1B354C"/>
<circle cx="13" cy="44" r="2" fill="#42E6A4"/><circle cx="20" cy="44" r="2" fill="#42E6A4"/>
<path d="M33 42V46M40 42V46M47 42V46" stroke="#A6C6DE" stroke-width="3"/></g></svg>